<svg width="20" height="20" viewBox="0 0 20 20" fill="none" xmlns="http://www.w3.org/2000/svg">
<path fill-rule="evenodd" clip-rule="evenodd" d="M9.41886 4.16675H10.5818C10.8819 4.16675 11.1257 4.41055 11.1257 4.71065V8.89344H15.3085C15.5898 8.89344 15.8337 9.13725 15.8337 9.41862V10.5815C15.8337 10.8816 15.5899 11.1254 15.3085 11.1254H11.1257V15.3082C11.1257 15.5896 10.8819 15.8334 10.5818 15.8334H9.41886C9.1375 15.8334 8.89369 15.5896 8.89369 15.3082V11.1254H4.71089C4.4108 11.1254 4.16699 10.8816 4.16699 10.5815V9.41862C4.16699 9.13725 4.41079 8.89344 4.71089 8.89344H8.89369V4.71065C8.89369 4.41056 9.13749 4.16675 9.41886 4.16675Z" fill="#576176"/>
</svg>
