<svg width="74" height="25" viewBox="0 0 74 25" fill="none" xmlns="http://www.w3.org/2000/svg">
<g id="Isolation_Mode" clip-path="url(#clip0_2670_50035)">
<path id="Vector" d="M1.95801 19.9L4.3505 21.4708C4.3505 21.4708 4.83937 20.1904 6.67592 20.5711C8.51247 20.9517 16.008 21.549 16.008 21.549C16.008 21.549 18.7082 22.3273 19.957 21.4261C21.2051 20.5249 48.8799 20.5668 48.8799 20.5668L52.8608 21.5958C52.8608 21.5958 54.1635 21.13 55.0852 21.0945C56.007 21.0589 63.9139 20.8807 63.9139 20.8807L65.3059 20.6321L68.5952 17.648L61.9889 8.40601L13.5001 10.2134L3.64036 13.076L1.95801 19.9Z" fill="#050505"/>
<path id="Vector_2" d="M70.7813 18.546H73.6122C73.6122 18.546 73.987 18.5254 73.9241 19.259C73.8611 19.9926 73.2727 19.8953 73.2727 19.8953H70.5352L70.7813 18.546Z" fill="#DFE4E8"/>
<path id="Vector_3" d="M7.54351 9.7228L6.22418 9.5481C6.22418 9.5481 4.01769 9.90389 2.7765 10.999C1.5353 12.094 1.01393 14.2359 1.08792 14.5419C1.1626 14.848 5.1849 13.2161 5.28378 13.0762C5.38335 12.9356 7.54282 9.7228 7.54282 9.7228H7.54351Z" fill="#C5D6E2"/>
<path id="Vector_4" d="M19.3386 7.64076C19.3386 7.64076 19.8738 7.33255 20.2596 7.20046C20.6455 7.06837 21.9945 6.87023 21.9088 6.98031C21.823 7.09038 21.2878 7.33255 21.3943 7.64005C21.5015 7.94826 19.3379 7.64005 19.3379 7.64005L19.3386 7.64076Z" fill="#5C5F66"/>
<path id="Vector_5" d="M20.8193 7.6626C20.8193 7.6626 29.6709 2.56435 32.6698 1.48633L33.8218 1.54669L27.1601 5.30841L22.983 8.14622L20.8193 7.66189V7.6626Z" fill="#C5D6E2"/>
<path id="Vector_6" d="M70.258 7.32605C70.258 7.32605 71.3257 6.9944 71.4992 7.73439C71.6728 8.47367 71.6728 9.18809 71.9708 9.95293C72.2688 10.7178 72.4673 11.1765 72.219 11.712C71.9708 12.2475 67.8496 11.2021 67.8496 11.2021C67.8496 11.2021 67.8247 7.37718 70.258 7.32605Z" fill="#AE222F"/>
<path id="Vector_7" d="M18.6361 21.8807C20.9657 21.6669 47.7035 21.6058 52.214 21.5973L52.1884 20.3091L18.6299 20.9063C18.6313 21.2827 18.6333 21.6065 18.6354 21.8807H18.6361Z" fill="#9D9E9B"/>
<path id="Vector_8" d="M72.6752 12.9561C72.6752 12.7061 72.3274 11.2425 72.3274 11.2425C72.3274 11.2425 71.8752 11.2255 70.5717 11.1892C69.2683 11.1537 69.0076 9.92302 68.7117 9.33359C68.4164 8.74415 70.7979 7.83586 71.0758 7.40763C71.3538 6.9794 67.0259 6.57248 66.1048 6.46525C65.1838 6.35801 62.5424 4.74169 59.0656 2.99256C55.5896 1.24343 51.1918 0.0993652 42.814 0.0993652C34.4361 0.0993652 32.1321 1.64254 32.1321 1.64254H33.1327C26.5104 4.80276 22.755 7.45166 22.755 7.45166C22.0594 7.66613 19.9041 7.4055 19.9041 7.4055C9.84042 8.45867 6.22401 9.54877 6.22401 9.54877C6.22401 9.54877 7.14229 9.97912 6.95144 10.2646C6.75991 10.5501 3.97327 12.6245 3.10478 13.4099C2.2356 14.1953 1.04281 14.1492 1.04281 14.1492C0.132834 14.5746 -0.030353 15.3302 0.0042206 15.8301C0.0387942 16.3301 0.403892 18.7219 0.421178 19.0436C0.438465 19.3646 -0.0483313 19.3291 0.108633 19.9185C0.264906 20.508 1.63817 21.2039 1.63817 21.2039L3.89514 21.4269C3.75892 20.7388 3.37307 18.4485 3.93732 16.9991C4.60804 15.2776 6.32359 11.7872 11.0899 11.7872C14.9428 11.7872 18.6304 14.375 18.6304 19.8248C18.6304 20.2289 18.6304 20.5868 18.6318 20.9071L52.1903 20.3098L52.173 19.437C52.173 19.437 53.2013 11.6721 59.8069 12.0095C65.479 12.2985 66.4969 17.494 65.8241 20.5861C67.066 20.476 70.143 20.2076 70.5717 20.2218C71.1104 20.2395 71.3365 19.7758 71.3365 19.7758C74.3437 18.8831 73.3003 17.8655 73.3003 17.8655C73.9607 16.5091 73.9088 15.6164 73.9959 14.3487C74.083 13.0811 72.6745 12.9561 72.6745 12.9561H72.6752Z" fill="#BBBBBB"/>
<path id="Vector_9" d="M59.8057 12.0087C53.2001 11.6714 52.1719 19.4363 52.1719 19.4363L52.2141 21.5973C52.6317 21.5966 52.8592 21.5959 52.8592 21.5959C52.7548 20.15 52.8073 12.9319 59.8638 12.8524C66.2081 12.7807 65.3043 20.6315 65.3043 20.6315C65.3043 20.6315 65.5042 20.613 65.8229 20.5853C66.4957 17.4933 65.4779 12.2978 59.8057 12.0087Z" fill="#9D9E9B"/>
<path id="Vector_10" d="M11.0891 11.7859C6.32349 11.7859 4.60725 15.2763 3.93653 16.9977C3.37229 18.4472 3.75813 20.7374 3.89435 21.4256L4.34864 21.4703C3.65371 17.5076 5.26969 11.9023 11.7529 12.4555C18.2362 13.0088 18.3579 20.4527 18.3579 21.0599C18.3579 21.667 18.4969 21.8986 18.4969 21.8986C18.5224 21.8922 18.5702 21.8858 18.6365 21.8801C18.6317 21.373 18.6289 20.7019 18.6289 19.8228C18.6289 14.373 14.9413 11.7852 11.0884 11.7852L11.0891 11.7859Z" fill="#9D9E9B"/>
<path id="Vector_11" d="M23.916 8.40546C23.916 8.40546 32.5594 2.27819 33.8207 2.05307C33.8207 2.05307 39.5198 0.418278 44.1651 0.87207C48.8104 1.32586 57.3964 2.04952 57.6426 4.8163C57.8888 7.5838 57.4891 7.07817 57.4891 7.07817L23.916 8.40546Z" fill="#C5D6E2"/>
<path id="Vector_12" d="M41.8256 1.13623L40.5332 7.82524L43.3026 7.68675L43.7645 1.13623H41.8256Z" fill="#313D49"/>
<path id="Vector_13" d="M11.2137 24.7266C14.2347 24.6492 16.6225 22.0712 16.5471 18.9686C16.4717 15.866 13.9616 13.4137 10.9406 13.4911C7.91967 13.5686 5.53184 16.1465 5.60725 19.2491C5.68266 22.3517 8.19276 24.8041 11.2137 24.7266Z" fill="#27262C"/>
<path id="Vector_14" d="M6.95508 19.1089C6.95508 21.4531 8.80546 23.3542 11.0887 23.3542C13.3719 23.3542 15.2216 21.4538 15.2216 19.1089C15.2216 16.7639 13.3713 14.8635 11.0887 14.8635C8.80615 14.8635 6.95508 16.7639 6.95508 19.1089Z" fill="#C3BFBE"/>
<g id="Group">
<path id="Vector_15" d="M9.65648 16.2634L10.6128 17.3797C10.6128 17.3797 10.778 17.6475 11.0042 17.6475C11.2303 17.6475 11.3955 17.46 11.3955 17.46L12.3961 16.2634C12.3961 16.2634 12.5351 16.0936 12.3961 15.9779C12.2571 15.8614 11.7689 15.6924 11.0913 15.6924C10.4136 15.6924 9.41308 15.8799 9.65648 16.2641V16.2634Z" fill="#27262C"/>
<path id="Vector_16" d="M9.65668 21.9551L10.613 20.8388C10.613 20.8388 10.7782 20.571 11.0044 20.571C11.2305 20.571 11.3957 20.7585 11.3957 20.7585L12.3956 21.9551C12.3956 21.9551 12.5353 22.1249 12.3956 22.2406C12.2566 22.3571 11.7684 22.5268 11.0908 22.5268C10.4131 22.5268 9.41259 22.3393 9.65668 21.9551Z" fill="#27262C"/>
<path id="Vector_17" d="M13.8975 17.6902L12.8105 18.6723C12.8105 18.6723 12.5498 18.842 12.5498 19.0743C12.5498 19.3065 12.7324 19.4762 12.7324 19.4762L13.8975 20.5031C13.8975 20.5031 14.0627 20.6459 14.1755 20.5031C14.2882 20.3604 14.4541 19.859 14.4541 19.163C14.4541 18.4671 14.2716 17.4395 13.8975 17.6902Z" fill="#27262C"/>
<path id="Vector_18" d="M8.35449 17.6902L9.44148 18.6723C9.44148 18.6723 9.70217 18.842 9.70217 19.0743C9.70217 19.3065 9.51962 19.4762 9.51962 19.4762L8.35449 20.5031C8.35449 20.5031 8.18923 20.6459 8.07582 20.5031C7.96311 20.3604 7.79785 19.859 7.79785 19.163C7.79785 18.4671 7.9804 17.4395 8.35449 17.6902Z" fill="#27262C"/>
</g>
<g id="Group_2">
<path id="Vector_19" d="M64.6766 19.109C64.6766 22.2124 62.2268 24.7285 59.205 24.7285C56.1833 24.7285 53.7334 22.2124 53.7334 19.109C53.7334 16.0056 56.1833 13.4895 59.205 13.4895C62.2268 13.4895 64.6766 16.0056 64.6766 19.109Z" fill="#27262C"/>
<path id="Vector_20" d="M55.085 19.1091C55.085 21.4534 56.9353 23.3545 59.2186 23.3545C61.5018 23.3545 63.3515 21.4541 63.3515 19.1091C63.3515 16.7642 61.5011 14.8638 59.2186 14.8638C56.936 14.8638 55.085 16.7642 55.085 19.1091Z" fill="#C3BFBE"/>
<g id="Group_3">
<path id="Vector_21" d="M57.7817 16.2634L58.738 17.3797C58.738 17.3797 58.9032 17.6475 59.1294 17.6475C59.3555 17.6475 59.5207 17.46 59.5207 17.46L60.5206 16.2634C60.5206 16.2634 60.6596 16.0936 60.5206 15.9779C60.3816 15.8614 59.8934 15.6924 59.2158 15.6924C58.5382 15.6924 57.5376 15.8799 57.7817 16.2641V16.2634Z" fill="#27262C"/>
<path id="Vector_22" d="M57.7817 21.9551L58.738 20.8388C58.738 20.8388 58.9032 20.571 59.1294 20.571C59.3555 20.571 59.5207 20.7585 59.5207 20.7585L60.5206 21.9551C60.5206 21.9551 60.6603 22.1249 60.5206 22.2406C60.3816 22.3571 59.8934 22.5268 59.2158 22.5268C58.5382 22.5268 57.5376 22.3393 57.7817 21.9551Z" fill="#27262C"/>
<path id="Vector_23" d="M62.0222 17.6902L60.9352 18.6723C60.9352 18.6723 60.6738 18.842 60.6738 19.0743C60.6738 19.3065 60.8564 19.4762 60.8564 19.4762L62.0215 20.5031C62.0215 20.5031 62.1868 20.6459 62.2995 20.5031C62.4129 20.3604 62.5781 19.859 62.5781 19.163C62.5781 18.4671 62.3956 17.4395 62.0215 17.6902H62.0222Z" fill="#27262C"/>
<path id="Vector_24" d="M56.4802 17.6902L57.5672 18.6723C57.5672 18.6723 57.8279 18.842 57.8279 19.0743C57.8279 19.3065 57.6453 19.4762 57.6453 19.4762L56.4802 20.5031C56.4802 20.5031 56.3149 20.6459 56.2015 20.5031C56.0888 20.3604 55.9229 19.859 55.9229 19.163C55.9229 18.4671 56.1054 17.4395 56.4795 17.6902H56.4802Z" fill="#27262C"/>
</g>
</g>
<path id="Vector_25" d="M54.568 2.31946C54.568 2.31946 50.0686 0.612237 42.833 0.813923C42.833 0.813923 36.7508 0.771313 33.8687 1.79892C33.8687 1.79892 29.415 3.51893 23.1475 8.65836H24.1321L24.4654 8.62356L58.1622 7.25153C58.147 6.93054 58.2079 6.32974 58.1152 5.62455C57.9251 4.17511 57.4314 3.03957 54.568 2.31875V2.31946ZM57.161 6.949L41.9479 7.53204L24.3119 8.35654C26.0157 7.1372 32.3987 2.78675 34.2988 2.05812C36.515 1.20877 43.2831 1.15764 44.0133 1.19528C44.7435 1.23292 52.4611 1.45804 55.924 3.29593C55.924 3.29593 58.1678 3.88608 57.1603 6.949H57.161Z" fill="#F0F4F7"/>
<path id="Vector_26" d="M22.0436 19.9L22.0388 19.8417C22.0333 19.7771 21.4697 13.3743 21.8535 11.4221C22.2276 9.51955 22.4924 9.05298 23.7433 8.09568L23.8062 8.04739C28.8712 4.16991 32.6716 1.87964 34.7965 1.42443C36.7015 1.01609 40.2245 0.742676 43.5636 0.742676C46.0495 0.742676 49.5739 0.888259 52.2437 1.58422C57.2423 2.88594 57.8654 3.66286 58.0963 5.12366C58.3169 6.52126 58.2706 11.2864 57.8833 12.1734L57.8709 12.2018L57.8412 12.2089C57.79 12.221 52.7561 13.4723 52.29 19.5037L52.2859 19.5612L22.0443 19.9H22.0436ZM43.5636 0.869084C40.2321 0.869084 36.7188 1.14179 34.8213 1.54871C32.7442 1.99327 28.8588 4.33751 23.8795 8.14894L23.8159 8.19724C22.5975 9.12968 22.3396 9.58489 21.9731 11.4469C21.6122 13.2827 22.0996 19.1238 22.155 19.7722L52.1711 19.4355C52.651 13.6072 57.3523 12.2089 57.7817 12.0932C58.1413 11.1728 58.1848 6.47936 57.9739 5.14283C57.752 3.73885 57.1407 2.98962 52.2126 1.70565C49.5552 1.01325 46.0419 0.868374 43.5629 0.868374L43.5636 0.869084Z" fill="#1D1D1D"/>
<path id="Vector_27" d="M6.67461 13.7637L3.57474 13.7786C3.57474 13.7786 3.44751 14.3943 4.18738 14.4419C4.92726 14.4895 5.91192 14.5079 5.91192 14.5079C5.91192 14.5079 6.36206 13.9959 6.67392 13.7637H6.67461Z" fill="#BC4926"/>
<path id="Vector_28" d="M53.2496 14.7657C53.2538 14.9858 46.4331 15.1122 38.0192 15.2756C29.6054 15.4389 22.7847 15.5788 22.7813 15.3587C22.7771 15.1385 29.622 14.9049 38.0358 14.7415C46.4497 14.5775 53.2461 14.5455 53.2503 14.7664L53.2496 14.7657Z" fill="#9D9E9B"/>
<path id="Vector_29" d="M41.3594 19.6287C40.8526 15.8471 41.8967 7.43952 41.9071 7.35501L42.7106 0.798096L42.833 0.813719L42.0295 7.37064C42.0191 7.45514 40.9771 15.8457 41.4811 19.611L41.3594 19.628V19.6287Z" fill="#1D1D1D"/>
<path id="Vector_30" d="M36.4484 10.0721C36.4484 10.0721 36.4166 9.58281 37.2422 9.36763C38.0678 9.15245 38.3029 9.13257 38.5753 9.13257C38.8478 9.13257 40.5688 9.24975 40.5813 9.90167C40.5937 10.5536 39.3055 10.7688 38.8035 10.8078C38.3022 10.8469 36.4159 10.9058 36.4477 10.0707L36.4484 10.0721Z" fill="#9D9E9B"/>
<path id="Vector_31" d="M52.6967 9.69296C52.6967 9.69296 52.6649 9.20366 53.4905 8.98848C54.3154 8.7733 54.5505 8.75342 54.8237 8.75342C55.0968 8.75342 56.8172 8.87059 56.8303 9.52252C56.8428 10.1744 55.5538 10.3896 55.0525 10.4287C54.5512 10.4677 52.6649 10.5267 52.6967 9.69154V9.69296Z" fill="#9D9E9B"/>
<path id="Vector_32" d="M39.8863 9.85707C39.8898 10.014 39.7688 10.1447 39.616 10.1482L37.3396 10.2029C37.1868 10.2065 37.0596 10.0822 37.0561 9.92524L37.0548 9.86204C37.0513 9.70509 37.1723 9.57513 37.3251 9.57087L39.6015 9.51619C39.7543 9.51264 39.8815 9.63692 39.885 9.79386L39.8863 9.85707Z" fill="#DCE4F1"/>
<path id="Vector_33" d="M56.1354 9.47767C56.1388 9.63462 56.0178 9.76528 55.865 9.76884L53.5887 9.82352C53.4359 9.82707 53.3093 9.70279 53.3052 9.54585L53.3038 9.48264C53.3003 9.3257 53.4213 9.19574 53.5742 9.19148L55.8505 9.13679C56.0033 9.13324 56.1305 9.25752 56.134 9.41447L56.1354 9.47767Z" fill="#DCE4F1"/>
</g>
<defs>
<clipPath id="clip0_2670_50035">
<rect width="74" height="24.6291" fill="white" transform="translate(0 0.100098)"/>
</clipPath>
</defs>
</svg>
