<svg width="24" height="24" viewBox="0 0 24 24" fill="none" xmlns="http://www.w3.org/2000/svg">
<g clip-path="url(#clip0_1749_34171)">
<path d="M17.8242 8.9656C17.402 7.71019 16.5632 6.63687 15.4471 5.92373C14.331 5.21058 13.0046 4.90048 11.688 5.04487C10.3713 5.18926 9.14367 5.77946 8.20863 6.71756C7.27359 7.65565 6.6874 8.88524 6.5473 10.2023C5.41251 10.3568 4.3788 10.9367 3.65544 11.8246C2.93207 12.7125 2.57308 13.8421 2.65113 14.9847C2.72919 16.1273 3.23845 17.1976 4.07585 17.9789C4.91324 18.7602 6.0162 19.1941 7.16147 19.1929H11.6774V12.2945L9.55297 14.4189C9.43129 14.5364 9.26833 14.6014 9.09918 14.6C8.93003 14.5985 8.76822 14.5306 8.64861 14.411C8.529 14.2914 8.46115 14.1296 8.45968 13.9605C8.45821 13.7913 8.52324 13.6284 8.64075 13.5067L11.8664 10.281C11.9874 10.1601 12.1515 10.0921 12.3225 10.0921C12.4936 10.0921 12.6576 10.1601 12.7786 10.281L16.0043 13.5067C16.0659 13.5662 16.115 13.6374 16.1489 13.7161C16.1827 13.7948 16.2005 13.8794 16.2012 13.9651C16.2019 14.0508 16.1856 14.1357 16.1532 14.215C16.1208 14.2943 16.0728 14.3663 16.0123 14.4269C15.9517 14.4875 15.8797 14.5354 15.8004 14.5678C15.7211 14.6002 15.6362 14.6166 15.5505 14.6158C15.4648 14.6151 15.3802 14.5973 15.3015 14.5635C15.2228 14.5297 15.1516 14.4805 15.0921 14.4189L12.9676 12.2945V19.1929H16.8384C18.1217 19.1931 19.359 18.7153 20.309 17.8526C21.2589 16.9899 21.8535 15.8043 21.9766 14.527C22.0997 13.2497 21.7426 11.9723 20.9748 10.9441C20.2071 9.91582 19.0838 9.21047 17.8242 8.9656Z" fill="#576176"/>
</g>
<defs>
<clipPath id="clip0_1749_34171">
<rect width="20" height="14.1929" fill="white" transform="translate(2 5)"/>
</clipPath>
</defs>
</svg>
