<svg width="24" height="24" viewBox="0 0 24 24" fill="none" xmlns="http://www.w3.org/2000/svg">
<g clip-path="url(#clip0_1749_34167)">
<path d="M13 6.07812H11V9.0421H13V6.07812Z" fill="#576176"/>
<path d="M13 10.134H11V18.7139H13V10.134Z" fill="#576176"/>
<path d="M16 9.0421H17.9854C17.9904 9.0421 17.9951 9.04475 18 9.04537V6.85812C18 6.42741 17.844 6.07812 17.6514 6.07812H16V9.0421Z" fill="#576176"/>
<path d="M8 10.1339H6.01464C6.00962 10.1339 6.00495 10.1312 6 10.1306V17.9338C6 18.3647 6.15609 18.7138 6.34858 18.7138H8V10.1339Z" fill="#576176"/>
<path d="M6.01464 9.0421H8V6.07812H6.34858C6.15609 6.07812 6 6.42741 6 6.85812V9.04553C6.00495 9.04475 6.00962 9.0421 6.01464 9.0421Z" fill="#576176"/>
<path d="M17.9854 10.1339H16V18.7138H17.6514C17.844 18.7138 18 18.3647 18 17.9338V10.1306C17.995 10.1312 17.9904 10.1339 17.9854 10.1339Z" fill="#576176"/>
</g>
<defs>
<clipPath id="clip0_1749_34167">
<rect width="12" height="13" fill="white" transform="translate(6 6)"/>
</clipPath>
</defs>
</svg>
