<svg width="21" height="19" viewBox="0 0 21 19" fill="none" xmlns="http://www.w3.org/2000/svg">
<g clip-path="url(#clip0_1548_9323)">
<path d="M1.84016 8.02008H3.84016C3.51931 8.55839 3.34993 9.17341 3.34993 9.80008C3.34993 10.4267 3.51931 11.0418 3.84016 11.5801H1.84016C1.5935 11.5801 1.35696 11.4821 1.18255 11.3077C1.00814 11.1333 0.910156 10.8967 0.910156 10.6501V8.95008C0.910156 8.70343 1.00814 8.46688 1.18255 8.29247C1.35696 8.11806 1.5935 8.02008 1.84016 8.02008Z" fill="#A6ACB8"/>
<path d="M9.79883 8.02008H19.7588C20.0055 8.02008 20.242 8.11806 20.4164 8.29247C20.5908 8.46688 20.6888 8.70343 20.6888 8.95008V10.6501C20.6888 10.8967 20.5908 11.1333 20.4164 11.3077C20.242 11.4821 20.0055 11.5801 19.7588 11.5801H9.79883C10.1218 11.0425 10.2924 10.4272 10.2924 9.80008C10.2924 9.17296 10.1218 8.55766 9.79883 8.02008Z" fill="#A6ACB8"/>
<path d="M1.84016 14.1334H8.1335C7.83044 14.6747 7.6713 15.2847 7.6713 15.9051C7.6713 16.5255 7.83044 17.1355 8.1335 17.6768H1.84016C1.71775 17.6768 1.59655 17.6526 1.48349 17.6056C1.37044 17.5587 1.26777 17.4899 1.18137 17.4032C1.09497 17.3165 1.02654 17.2136 0.979995 17.1003C0.933455 16.9871 0.909723 16.8658 0.910162 16.7434V15.0468C0.914531 14.803 1.01444 14.5707 1.18838 14.3999C1.36231 14.2291 1.59637 14.1334 1.84016 14.1334Z" fill="#A6ACB8"/>
<path d="M14.4648 14.1334H19.7648C20.0115 14.1334 20.248 14.2314 20.4225 14.4058C20.5969 14.5802 20.6948 14.8168 20.6948 15.0634V16.7434C20.6953 16.8658 20.6716 16.9871 20.625 17.1003C20.5785 17.2136 20.51 17.3165 20.4236 17.4032C20.3372 17.4899 20.2346 17.5587 20.1215 17.6056C20.0085 17.6526 19.8873 17.6768 19.7648 17.6768H14.4648C14.7679 17.1355 14.927 16.5255 14.927 15.9051C14.927 15.2847 14.7679 14.6747 14.4648 14.1334Z" fill="#A6ACB8"/>
<path d="M1.84016 1.9234L11.1135 1.9234C10.8074 2.46672 10.6466 3.07979 10.6466 3.7034C10.6466 4.327 10.8074 4.94007 11.1135 5.4834L1.84016 5.4834C1.59351 5.4834 1.35696 5.38542 1.18255 5.21101C1.00814 5.0366 0.910162 4.80005 0.910162 4.5534V2.85673C0.909723 2.73432 0.933455 2.61303 0.979995 2.49981C1.02654 2.3866 1.09497 2.28368 1.18137 2.19697C1.26777 2.11025 1.37044 2.04145 1.48349 1.99451C1.59655 1.94756 1.71775 1.9234 1.84016 1.9234Z" fill="#A6ACB8"/>
<path d="M17.4453 1.92334H19.7586C19.8811 1.92334 20.0023 1.94751 20.1153 1.99445C20.2284 2.0414 20.331 2.1102 20.4174 2.19691C20.5038 2.28362 20.5723 2.38654 20.6188 2.49976C20.6654 2.61297 20.6891 2.73426 20.6886 2.85667V4.55334C20.6843 4.79709 20.5844 5.02938 20.4104 5.2002C20.2365 5.37102 20.0024 5.46671 19.7586 5.46667H17.4453C17.7514 4.92335 17.9122 4.31028 17.9122 3.68667C17.9122 3.06307 17.7514 2.45 17.4453 1.90667V1.92334Z" fill="#A6ACB8"/>
<path d="M14.2796 0.903399C14.9155 0.900403 15.5335 1.11424 16.0316 1.50963C16.5297 1.90503 16.8781 2.45838 17.0195 3.07842C17.1608 3.69846 17.0866 4.34815 16.8091 4.92036C16.5316 5.49257 16.0674 5.95312 15.493 6.22605C14.9186 6.49898 14.2683 6.56799 13.6494 6.42171C13.0306 6.27542 12.48 5.92257 12.0886 5.42135C11.6972 4.92014 11.4883 4.30048 11.4963 3.66459C11.5044 3.02869 11.7289 2.41453 12.1329 1.9234C12.3936 1.60581 12.7211 1.34971 13.0922 1.17339C13.4633 0.997065 13.8687 0.904873 14.2796 0.903399Z" fill="#A6ACB8"/>
<path d="M6.79874 7.15669C7.40504 7.1565 7.99298 7.36474 8.46399 7.7465C8.93501 8.12826 9.26047 8.66034 9.38581 9.25354C9.51116 9.84674 9.42877 10.465 9.15246 11.0047C8.87615 11.5444 8.42271 11.9726 7.86817 12.2177C7.31362 12.4628 6.69167 12.5099 6.10658 12.3509C5.52149 12.1919 5.00882 11.8367 4.65453 11.3447C4.30023 10.8527 4.12585 10.2538 4.1606 9.64851C4.19535 9.04321 4.43713 8.46825 4.84541 8.02002C5.0929 7.748 5.39451 7.5307 5.73088 7.38203C6.06725 7.23336 6.43098 7.1566 6.79874 7.15669Z" fill="#A6ACB8"/>
<path d="M11.2928 13.0967C11.9287 13.0933 12.5468 13.3064 13.0455 13.7011C13.5441 14.0957 13.8936 14.6484 14.0363 15.2681C14.1791 15.8878 14.1067 16.5376 13.8309 17.1107C13.5552 17.6837 13.0927 18.1458 12.5193 18.421C11.946 18.6961 11.2961 18.7679 10.6766 18.6246C10.057 18.4812 9.5047 18.1312 9.11054 17.6322C8.71638 17.1331 8.50383 16.5148 8.50787 15.8789C8.51191 15.2429 8.7323 14.6273 9.13277 14.1334C9.39337 13.8112 9.72239 13.551 10.096 13.3717C10.4696 13.1924 10.8784 13.0985 11.2928 13.0967Z" fill="#A6ACB8"/>
</g>
<defs>
<clipPath id="clip0_1548_9323">
<rect width="18" height="20" fill="white" transform="matrix(0 -1 1 0 0.798828 18.8)"/>
</clipPath>
</defs>
</svg>
