<svg width="17" height="16" viewBox="0 0 17 16" fill="none" xmlns="http://www.w3.org/2000/svg">
<path fill-rule="evenodd" clip-rule="evenodd" d="M0.666016 10.8937H1.51708C1.98711 10.8937 2.36814 11.2733 2.36814 11.7455V16.0001H1.51708C1.04705 16.0001 0.666016 15.6204 0.666016 15.1482V10.8937Z" fill="#576176"/>
<path fill-rule="evenodd" clip-rule="evenodd" d="M4.92162 14.2979C5.39207 14.2979 5.77344 14.6798 5.77344 15.1489V16H1.51887C1.04843 16 0.667055 15.618 0.667055 15.1489V14.2979L4.92162 14.2979Z" fill="#576176"/>
<path fill-rule="evenodd" clip-rule="evenodd" d="M16.666 10.8937H15.815C15.3449 10.8937 14.9639 11.2733 14.9639 11.7455V16.0001H15.815C16.285 16.0001 16.666 15.6204 16.666 15.1482V10.8937Z" fill="#576176"/>
<path fill-rule="evenodd" clip-rule="evenodd" d="M12.4104 14.2979C11.94 14.2979 11.5586 14.6798 11.5586 15.1489V16H15.8132C16.2836 16 16.665 15.618 16.665 15.1489V14.2979L12.4104 14.2979Z" fill="#576176"/>
<path fill-rule="evenodd" clip-rule="evenodd" d="M0.666016 5.10632H1.51708C1.98711 5.10632 2.36814 4.72669 2.36814 4.2545V-5.96046e-05H1.51708C1.04705 -5.96046e-05 0.666016 0.379578 0.666016 0.851759V5.10632Z" fill="#576176"/>
<path fill-rule="evenodd" clip-rule="evenodd" d="M4.92162 1.70215C5.39207 1.70215 5.77344 1.32016 5.77344 0.851085V2.07424e-05L1.51887 2.07424e-05C1.04843 2.07424e-05 0.667055 0.382011 0.667055 0.851085V1.70215L4.92162 1.70215Z" fill="#576176"/>
<path fill-rule="evenodd" clip-rule="evenodd" d="M16.666 5.10632H15.815C15.3449 5.10632 14.9639 4.72669 14.9639 4.2545V-5.96046e-05H15.815C16.285 -5.96046e-05 16.666 0.379578 16.666 0.851759V5.10632Z" fill="#576176"/>
<path fill-rule="evenodd" clip-rule="evenodd" d="M12.4104 1.70215C11.94 1.70215 11.5586 1.32016 11.5586 0.851085V2.07424e-05L15.8132 2.07424e-05C16.2836 2.07424e-05 16.665 0.382011 16.665 0.851085V1.70215L12.4104 1.70215Z" fill="#576176"/>
</svg>
