<svg width="21" height="20" viewBox="0 0 21 20" fill="none" xmlns="http://www.w3.org/2000/svg">
<path fill-rule="evenodd" clip-rule="evenodd" d="M9.56314 4.16675H10.744C11.0487 4.16675 11.2962 4.41055 11.2962 4.71065V8.89344H15.5434C15.8291 8.89344 16.0766 9.13725 16.0766 9.41862V10.5815C16.0766 10.8816 15.8291 11.1254 15.5434 11.1254H11.2962V15.3082C11.2962 15.5896 11.0487 15.8334 10.744 15.8334H9.56314C9.27744 15.8334 9.02988 15.5896 9.02988 15.3082V11.1254H4.78274C4.47803 11.1254 4.23047 10.8816 4.23047 10.5815V9.41862C4.23047 9.13725 4.47802 8.89344 4.78274 8.89344H9.02988V4.71065C9.02988 4.41056 9.27744 4.16675 9.56314 4.16675Z" fill="white"/>
</svg>
