<svg width="20" height="22" viewBox="0 0 20 22" fill="none" xmlns="http://www.w3.org/2000/svg">
<path d="M2.08009 3.96384L9.77232 0.0900598C10.0121 -0.0390664 10.2888 -0.0206198 10.5102 0.0900598L18.2393 4.00074C18.4422 4.09297 18.7005 4.38812 18.7005 4.72015V13.0396C18.7005 15.0871 17.8335 16.8027 16.3393 18.2968C14.9005 19.7172 12.8898 20.8978 10.4548 21.9308C10.2519 22.0231 10.0121 22.0231 9.82766 21.9308C7.39271 20.8978 5.38203 19.7172 3.9432 18.2968C2.44902 16.8027 1.58203 15.0871 1.58203 13.0396V4.72015C1.58203 4.38812 1.78494 4.09297 2.08009 3.96384ZM10.1413 13.2425C10.8238 13.2425 11.3587 13.7959 11.3587 14.46C11.3587 15.1425 10.8238 15.6774 10.1413 15.6774C9.45873 15.6774 8.92378 15.1425 8.92378 14.46C8.92378 13.7959 9.45873 13.2425 10.1413 13.2425ZM10.1413 12.025C9.69853 12.025 9.36649 11.6561 9.3296 11.1949L8.92378 7.54248C8.84999 6.89685 9.51407 6.30656 10.1413 6.30656C10.7684 6.30656 11.4325 6.89685 11.3587 7.54248L10.9529 11.1949C10.916 11.6376 10.6024 12.025 10.1413 12.025ZM10.1413 1.71336L3.20533 5.21821V13.0396C3.20533 14.6075 3.88786 15.9541 5.08688 17.1347C6.30436 18.3522 8.03834 19.3852 10.1413 20.3075C12.2257 19.3852 13.9781 18.3522 15.1772 17.1347C16.3762 15.9541 17.0587 14.6075 17.0587 13.0396V5.21821L10.1413 1.71336Z" fill="#D11D32"/>
</svg>
