<svg width="17" height="18" viewBox="0 0 17 18" fill="none" xmlns="http://www.w3.org/2000/svg">
<g id="noun-information-1582625 1" clip-path="url(#clip0_2670_40205)">
<g id="Group">
<path id="Vector" d="M0.457317 3.24991L7.43902 0.0669813C7.66768 -0.0290553 7.91159 -0.0153358 8.10976 0.0669813L15.1524 3.26363C15.3201 3.35966 15.5488 3.5929 15.5488 3.86729V10.6584C15.5488 12.3322 14.7713 13.7453 13.3994 14.9664C12.1037 16.1188 10.2744 17.0929 8.06402 17.9435C7.8811 18.0121 7.66768 18.0121 7.48476 17.9435C5.28963 17.0929 3.44512 16.1188 2.14939 14.9664C0.777439 13.7453 0 12.3322 0 10.6584V3.86729C0 3.57918 0.182927 3.34594 0.457317 3.24991ZM5.92988 12.1264H7.04268V8.12033H5.92988V6.78954H7.77439C8.18598 6.78954 8.52134 7.09137 8.52134 7.44808V12.1264H9.63415V13.4572H5.92988V12.1264ZM7.77439 3.9496C8.38415 3.9496 8.88719 4.40235 8.88719 4.95113C8.88719 5.51363 8.38415 5.95265 7.77439 5.95265C7.16463 5.95265 6.66159 5.51363 6.66159 4.95113C6.66159 4.40235 7.16463 3.9496 7.77439 3.9496ZM7.77439 1.41149L1.47866 4.26515V10.6584C1.47866 11.9481 2.10366 13.0456 3.18598 14.0197C4.29878 15.0075 5.8689 15.8581 7.77439 16.599C9.67988 15.8581 11.2652 15.0075 12.3628 14.0197C13.4451 13.0456 14.0701 11.9481 14.0701 10.6584V4.26515L7.77439 1.41149Z" fill="#DF9C49" stroke="#DF9C49" stroke-width="0.4"/>
</g>
</g>
<defs>
<clipPath id="clip0_2670_40205">
<rect width="16.25" height="18" fill="white"/>
</clipPath>
</defs>
</svg>
