<svg width="16" height="20" viewBox="0 0 16 20" fill="none" xmlns="http://www.w3.org/2000/svg">
<path fill-rule="evenodd" clip-rule="evenodd" d="M3.7872 3.95791C4.91148 2.83628 6.43474 2.20638 8.02284 2.20638C9.61094 2.20638 11.1342 2.83628 12.2585 3.95791C14.496 6.19565 14.4824 9.7733 12.2254 12.4654L8.02294 17.4789L3.82024 12.4654C1.56351 9.7733 1.54986 6.19506 3.7872 3.95791ZM2.96751 13.18L7.59608 18.7021C7.64829 18.7644 7.71352 18.8145 7.78718 18.8489C7.86085 18.8833 7.94115 18.9011 8.02245 18.9011C8.10374 18.9011 8.18404 18.8833 8.25771 18.8489C8.33137 18.8145 8.3966 18.7644 8.44881 18.7021L13.0774 13.18C14.2854 11.7663 14.974 9.98218 15.0293 8.12343C15.0513 7.20664 14.8867 6.29495 14.5457 5.44368C14.2046 4.5924 13.6942 3.81929 13.0453 3.17125C11.7108 1.84395 9.90514 1.09888 8.02294 1.09888C6.14074 1.09888 4.33506 1.84395 3.00054 3.17125C2.35146 3.81918 1.84081 4.59225 1.4996 5.44353C1.15838 6.29482 0.993717 7.20657 1.0156 8.12343C1.07084 9.98218 1.75952 11.7663 2.96751 13.18ZM8.02294 5.83248C7.56522 5.83248 7.11777 5.96821 6.73719 6.22251C6.35661 6.47681 6.05998 6.83825 5.88482 7.26113C5.70966 7.68401 5.66382 8.14934 5.75312 8.59826C5.84242 9.04719 6.06283 9.45956 6.38649 9.78322C6.71015 10.1069 7.12252 10.3273 7.57144 10.4166C8.02037 10.5059 8.4857 10.4601 8.90858 10.2849C9.33146 10.1097 9.6929 9.8131 9.9472 9.43252C10.2015 9.05194 10.3372 8.60449 10.3372 8.14677C10.3364 7.53324 10.0923 6.94508 9.65846 6.51125C9.22463 6.07742 8.63647 5.83332 8.02294 5.83248ZM8.02294 11.5749C8.70084 11.5749 9.36351 11.3739 9.92717 10.9972C10.4908 10.6206 10.9301 10.0853 11.1896 9.45902C11.449 8.83272 11.5168 8.14356 11.3846 7.47869C11.2523 6.81381 10.9259 6.20309 10.4466 5.72374C9.96721 5.2444 9.35649 4.91796 8.69161 4.78571C8.02674 4.65345 7.33758 4.72133 6.71129 4.98075C6.08499 5.24017 5.54968 5.67948 5.17306 6.24314C4.79644 6.80679 4.59542 7.46946 4.59542 8.14736C4.59647 9.05608 4.95792 9.92727 5.60048 10.5698C6.24303 11.2124 7.11423 11.5738 8.02294 11.5749Z" fill="#576176" stroke="#576176"/>
</svg>
