<svg width="14" height="14" viewBox="0 0 14 14" fill="none" xmlns="http://www.w3.org/2000/svg">
<path d="M12.95 0C13.5299 0 14 0.587606 14 1.3125C14 2.03735 13.5299 2.625 12.95 2.625H1.05C0.470102 2.625 0 2.03735 0 1.3125C0 0.587606 0.470102 0 1.05 0H12.95ZM12.95 5.68749C13.5299 5.68749 14 6.2751 14 6.99999C14 7.72484 13.5299 8.31249 12.95 8.31249H1.05C0.470102 8.31249 0 7.72484 0 6.99999C0 6.2751 0.470102 5.68749 1.05 5.68749H12.95ZM12.95 11.375C13.5299 11.375 14 11.9626 14 12.6875C14 13.4124 13.5299 14 12.95 14H1.05C0.470102 14 0 13.4124 0 12.6875C0 11.9626 0.470102 11.375 1.05 11.375H12.95Z" fill="white"/>
</svg>
