<svg width="18" height="24" viewBox="0 0 18 24" fill="none" xmlns="http://www.w3.org/2000/svg">
<g clip-path="url(#clip0_1548_10293)">
<path d="M15.1769 20.8333H2.13491C1.35424 20.8333 0.658908 20.396 0.320241 19.692C-0.017759 18.9873 0.0749077 18.172 0.563574 17.562L0.608241 17.5067C1.07491 16.924 1.33291 16.188 1.33291 15.438V10.8333C1.33357 6.79 4.62357 3.5 8.66691 3.5C12.7102 3.5 16.0002 6.79 16.0002 10.8333V15.466C16.0002 16.2233 16.2636 16.964 16.7396 17.5527C17.2329 18.1607 17.3309 18.9787 16.9936 19.686C16.6562 20.3933 15.9609 20.8333 15.1769 20.8333ZM8.66691 4.83333C5.35891 4.83333 2.66691 7.52533 2.66691 10.8333V15.438C2.66691 16.49 2.30491 17.522 1.64691 18.342L1.60224 18.3973C1.43691 18.604 1.40624 18.8727 1.52224 19.114C1.63824 19.3553 1.86691 19.4993 2.13424 19.4993H15.1769C15.4449 19.4993 15.6749 19.3547 15.7902 19.112C15.9062 18.87 15.8736 18.6 15.7049 18.392C15.0356 17.5673 14.6669 16.5273 14.6669 15.4653V10.8327C14.6669 7.52467 11.9756 4.83333 8.66691 4.83333Z" fill="#576176"/>
<path d="M8.66732 23.4993C6.82932 23.4993 5.33398 22.0039 5.33398 20.1659V19.4993H12.0007V20.1659C12.0007 22.0039 10.5053 23.4993 8.66732 23.4993ZM6.78132 20.8326C7.05665 21.6086 7.79798 22.1659 8.66732 22.1659C9.53665 22.1659 10.278 21.6086 10.5533 20.8326H6.78132Z" fill="#576176"/>
<path d="M9.93442 7.22339H7.39909C7.0309 7.22339 6.73242 7.52187 6.73242 7.89006C6.73242 8.25825 7.0309 8.55672 7.39909 8.55672H9.93442C10.3026 8.55672 10.6011 8.25825 10.6011 7.89006C10.6011 7.52187 10.3026 7.22339 9.93442 7.22339Z" fill="#576176"/>
<circle cx="5.5" cy="5" r="4.5" fill="#DF9C49"/>
</g>
<defs>
<clipPath id="clip0_1548_10293">
<rect width="18" height="23" fill="white" transform="translate(0 0.5)"/>
</clipPath>
</defs>
</svg>
