<svg width="60" height="70" viewBox="0 0 60 70" fill="none" xmlns="http://www.w3.org/2000/svg">
<g id="noun-chassis-1027028 1" clip-path="url(#clip0_2689_40340)">
<g id="Group">
<g id="Group_2">
<g id="Group_3">
<path id="Vector" fill-rule="evenodd" clip-rule="evenodd" d="M0.583984 6.47925V15.5792C0.583984 18.7153 3.1354 21.2667 6.27148 21.2667H7.40898V0.791748H6.27148C3.1354 0.791748 0.583984 3.34316 0.583984 6.47925Z" fill="#576176"/>
<path id="Vector_2" fill-rule="evenodd" clip-rule="evenodd" d="M0.583984 54.2542V63.3542C0.583984 66.4902 3.1354 69.0417 6.27148 69.0417H7.40898V48.5667H6.27148C3.1354 48.5667 0.583984 51.1181 0.583984 54.2542Z" fill="#576176"/>
<path id="Vector_3" fill-rule="evenodd" clip-rule="evenodd" d="M54.0457 48.5667H52.9082V69.0417H54.0457C57.1818 69.0417 59.7332 66.4902 59.7332 63.3542V54.2542C59.7332 51.1181 57.1818 48.5667 54.0457 48.5667Z" fill="#576176"/>
<path id="Vector_4" fill-rule="evenodd" clip-rule="evenodd" d="M35.8461 12.1667H43.8086V9.89175H35.8461V12.1667ZM29.0211 28.0917H31.2961V16.7167H29.0211V28.0917ZM29.0211 53.1167H31.2961V39.4668H29.0211V53.1167ZM35.8461 59.9417H43.8086V57.6668H35.8461V59.9417ZM16.5086 59.9417H24.4711V57.6668H16.5086V59.9417ZM16.5086 12.1667H24.4711V9.89175H16.5086V12.1667ZM43.8086 6.47925V7.61675H35.2125C34.4242 6.26312 32.9739 5.34175 31.2961 5.34175H29.0211C27.3433 5.34175 25.893 6.26312 25.1047 7.61675H16.5086V6.47925C16.5086 3.34316 13.9572 0.791748 10.8211 0.791748H9.68359V21.2667H10.8211C13.9572 21.2667 16.5086 18.7153 16.5086 15.5792V14.4417H25.1047C25.5005 15.1231 26.0647 15.6862 26.7461 16.0843V28.0917H25.6086C24.9796 28.0917 24.4711 28.6013 24.4711 29.2292V38.3293C24.4711 38.9571 24.9796 39.4668 25.6086 39.4668H26.7461V53.7492C26.0647 54.1473 25.5005 54.7104 25.1047 55.3918H16.5086V54.2542C16.5086 51.1182 13.9572 48.5667 10.8211 48.5667H9.68359V69.0417H10.8211C13.9572 69.0417 16.5086 66.4903 16.5086 63.3543V62.2168H25.1047C25.893 63.5704 27.3433 64.4918 29.0211 64.4918H31.2961C32.9739 64.4918 34.4242 63.5704 35.2125 62.2168H43.8086V63.3543C43.8086 66.4903 46.36 69.0417 49.4961 69.0417H50.6336V48.5667H49.4961C46.36 48.5667 43.8086 51.1182 43.8086 54.2542V55.3918H35.2125C34.8167 54.7104 34.2525 54.1473 33.5711 53.7492V39.4668H34.7086C35.3376 39.4668 35.8461 38.9571 35.8461 38.3293V29.2292C35.8461 28.6013 35.3376 28.0917 34.7086 28.0917H33.5711V16.0843C34.2525 15.6862 34.8167 15.1231 35.2125 14.4417H43.8086V15.5792C43.8086 18.7153 46.36 21.2667 49.4961 21.2667H50.6336V0.791748H49.4961C46.36 0.791748 43.8086 3.34316 43.8086 6.47925Z" fill="#576176"/>
<path id="Vector_5" fill-rule="evenodd" clip-rule="evenodd" d="M54.0457 0.791748H52.9082V21.2667H54.0457C57.1818 21.2667 59.7332 18.7153 59.7332 15.5792V6.47925C59.7332 3.34316 57.1818 0.791748 54.0457 0.791748Z" fill="#576176"/>
</g>
</g>
</g>
</g>
<defs>
<clipPath id="clip0_2689_40340">
<rect width="59.15" height="68.25" fill="white" transform="translate(0.583984 0.791748)"/>
</clipPath>
</defs>
</svg>
