<svg width="19" height="19" viewBox="0 0 19 19" fill="none" xmlns="http://www.w3.org/2000/svg">
<g id="Group 8646">
<path id="Vector" d="M9.93209 6.1057L9.50632 5.79858L9.08054 6.1057C8.2252 6.72423 7.28478 7.2156 6.28857 7.56451L5.31836 7.89256C5.50135 9.68593 6.3358 11.3499 7.66362 12.5691L9.41558 14.0977C9.44143 14.1181 9.4734 14.1292 9.50632 14.1292C9.53924 14.1292 9.5712 14.1181 9.59706 14.0977L11.349 12.5691C12.6768 11.3499 13.5113 9.68593 13.6943 7.89256L12.731 7.56451C11.7324 7.21621 10.7896 6.72482 9.93209 6.1057Z" fill="#DF9C49"/>
<path id="Vector_2" d="M17.417 7.60241L16.618 7.39727C16.5343 7.37567 16.4641 7.30819 16.4344 7.21912C16.3211 6.87361 16.1807 6.5308 16.016 6.20689C15.9755 6.12321 15.9755 6.02874 16.0187 5.95316L16.4371 5.24325C16.6153 4.94093 16.5667 4.55494 16.3184 4.30391L14.6934 2.67895C14.4451 2.43061 14.0591 2.37933 13.754 2.56018L13.0441 2.97856C12.9713 3.02175 12.8741 3.02175 12.7904 2.98126C12.4665 2.81661 12.1264 2.67625 11.7782 2.56288C11.6891 2.53319 11.6216 2.4657 11.6 2.37933L11.3949 1.58034C11.3058 1.24024 10.9981 1 10.6472 1H8.35011C7.99651 1 7.69149 1.23754 7.60241 1.58034L7.39727 2.37933C7.37567 2.463 7.30819 2.53319 7.21912 2.56018C6.86821 2.67625 6.5281 2.81661 6.20419 2.98126C6.12051 3.02175 6.02604 3.02175 5.95046 2.97856L5.24055 2.56018C4.93823 2.38203 4.55224 2.43061 4.30121 2.67895L2.67625 4.30391C2.42791 4.55224 2.37663 4.93823 2.55748 5.24325L2.97587 5.95316C3.01905 6.02874 3.01905 6.12321 2.97856 6.20689C2.81391 6.5308 2.67355 6.87091 2.56018 7.21912C2.53049 7.30819 2.463 7.37567 2.37933 7.39727L1.58034 7.60241C1.24024 7.69149 1 7.99921 1 8.35011V10.6472C1 11.0008 1.23754 11.3058 1.58034 11.3949L2.37933 11.6C2.463 11.6216 2.53319 11.6891 2.56288 11.7782C2.67355 12.1264 2.81391 12.4692 2.97856 12.7931C3.01905 12.8768 3.01905 12.9713 2.97587 13.0468L2.55748 13.7567C2.37933 14.0591 2.42791 14.4451 2.67625 14.6961L4.30121 16.3211C4.54954 16.5694 4.93553 16.618 5.24055 16.4398L5.95046 16.0214C6.02604 15.9755 6.12051 15.9755 6.20419 16.0187C6.5281 16.1834 6.87091 16.3238 7.21642 16.4371C7.30549 16.4668 7.37298 16.5343 7.39457 16.6207L7.59971 17.4197C7.68879 17.7598 7.99651 18 8.34741 18H10.6445C10.9954 18 11.3031 17.7625 11.3922 17.4197L11.5973 16.6207C11.6189 16.537 11.6864 16.4668 11.7755 16.4398C12.121 16.3265 12.4638 16.1861 12.7877 16.0214C12.8714 15.9782 12.9659 15.9809 13.0414 16.0241L13.7513 16.4425C14.0564 16.6207 14.4397 16.5721 14.6907 16.3238L16.3157 14.6988C16.564 14.4505 16.6126 14.0645 16.4344 13.7594L16.016 13.0495C15.9755 12.9713 15.9755 12.8768 16.016 12.7931C16.1807 12.4692 16.3211 12.1291 16.4344 11.7809C16.4641 11.6918 16.5316 11.6243 16.6153 11.6027L17.4143 11.3976C17.7544 11.3085 17.9946 11.0008 17.9946 10.6499V8.35281C17.9946 7.99921 17.7571 7.69149 17.417 7.60241ZM17.4817 10.6499C17.4817 10.7687 17.4035 10.8712 17.2874 10.8982L16.4884 11.1034C16.232 11.1708 16.0295 11.3625 15.9459 11.6189C15.8406 11.9401 15.7083 12.2587 15.5572 12.5583C15.4357 12.7985 15.4411 13.0792 15.5761 13.306L15.9944 14.0159C16.0538 14.1158 16.0376 14.2453 15.954 14.329L14.329 15.954C14.2453 16.0376 14.1185 16.0538 14.0159 15.9944L13.306 15.5761C13.0792 15.4411 12.7985 15.4357 12.5583 15.5572C12.256 15.711 11.9401 15.8406 11.6189 15.9459C11.3625 16.0295 11.1681 16.232 11.1034 16.4884L10.8982 17.2874C10.8685 17.4008 10.766 17.4817 10.6499 17.4817H8.35281C8.23404 17.4817 8.13147 17.4035 8.10448 17.2874L7.89933 16.4884C7.83455 16.232 7.6402 16.0295 7.38377 15.9459C7.06256 15.8406 6.74675 15.7083 6.44443 15.5572C6.33106 15.4978 6.20689 15.4708 6.08542 15.4708C5.95046 15.4708 5.8155 15.5059 5.69673 15.5761L4.98682 15.9944C4.88425 16.0538 4.75738 16.0376 4.67371 15.954L3.04065 14.3317C2.95697 14.248 2.94077 14.1212 3.00016 14.0186L3.41855 13.3087C3.55351 13.0819 3.55891 12.8012 3.43744 12.561C3.28358 12.2587 3.15402 11.9428 3.04875 11.6216C2.96507 11.3625 2.75992 11.1708 2.50619 11.1034L1.70721 10.8982C1.59384 10.8685 1.51286 10.766 1.51286 10.6499V8.35281C1.51286 8.23404 1.59114 8.13417 1.70721 8.10448L2.50619 7.89933C2.76262 7.83185 2.96507 7.6402 3.04875 7.38377C3.15402 7.06256 3.28628 6.74675 3.43744 6.44443C3.55891 6.20419 3.55351 5.92347 3.41855 5.69673L3.00016 4.98682C2.94077 4.88695 2.95697 4.75738 3.04065 4.67371L4.66561 3.04875C4.74929 2.96507 4.87885 2.94887 4.97872 3.00826L5.68863 3.42664C5.91537 3.56161 6.19609 3.56701 6.43633 3.44554C6.73865 3.29438 7.05446 3.16211 7.37567 3.05684C7.63211 2.97317 7.82645 2.77072 7.89123 2.51429L8.09638 1.71531C8.12607 1.60194 8.22864 1.52096 8.34471 1.52096H10.6418C10.7606 1.52096 10.8604 1.59924 10.8901 1.71531L11.0953 2.51429C11.1601 2.77072 11.3544 2.97317 11.6108 3.05684C11.932 3.16211 12.2506 3.29438 12.5502 3.44554C12.7904 3.56701 13.0711 3.55891 13.2979 3.42664L14.0078 3.00826C14.1077 2.94887 14.2372 2.96507 14.3209 3.04875L15.9459 4.67371C16.0295 4.75738 16.0457 4.88425 15.9863 4.98682L15.568 5.69673C15.433 5.92347 15.4276 6.20419 15.5491 6.44443C15.7029 6.74675 15.8325 7.06256 15.9378 7.38377C16.0214 7.6402 16.2239 7.83455 16.4803 7.89933L17.2793 8.10448C17.3927 8.13417 17.4736 8.23674 17.4736 8.35281V10.6499H17.4817Z" fill="#DF9C49" stroke="#DF9C49" stroke-width="0.7"/>
</g>
</svg>
