<svg width="20" height="20" viewBox="0 0 20 20" fill="none" xmlns="http://www.w3.org/2000/svg">
<g id="Group 8606">
<circle id="Ellipse 46" cx="10" cy="10" r="10" fill="#EFF0F4"/>
<path id="Vector" d="M7.10903 7.1999C7.10903 5.6559 8.36503 4.3999 9.90903 4.3999C11.453 4.3999 12.709 5.6559 12.709 7.1999C12.709 8.7439 11.453 9.9999 9.90903 9.9999C8.36503 9.9999 7.10903 8.7439 7.10903 7.1999ZM14.5878 14.1235C14.0854 11.9315 12.1614 10.3999 9.90903 10.3999C7.65663 10.3999 5.73263 11.9311 5.23023 14.1235C5.14743 14.4851 5.23223 14.8587 5.46303 15.1483C5.69183 15.4355 6.03343 15.5999 6.40023 15.5999H13.4178C13.7846 15.5999 14.1262 15.4351 14.355 15.1483C14.5858 14.8587 14.6706 14.4855 14.5878 14.1235Z" fill="white"/>
</g>
</svg>
