<svg width="18" height="18" viewBox="0 0 18 18" fill="none" xmlns="http://www.w3.org/2000/svg">
<path fill-rule="evenodd" clip-rule="evenodd" d="M11.803 10.27L17.533 16L16.043 17.49L10.313 11.76C9.24297 12.53 7.95297 13 6.54297 13C2.95297 13 0.0429688 10.09 0.0429688 6.5C0.0429688 2.91 2.95297 0 6.54297 0C10.133 0 13.043 2.91 13.043 6.5C13.043 7.91 12.573 9.2 11.803 10.27ZM6.54297 2C4.05297 2 2.04297 4.01 2.04297 6.5C2.04297 8.99 4.05297 11 6.54297 11C9.03297 11 11.043 8.99 11.043 6.5C11.043 4.01 9.03297 2 6.54297 2Z" fill="white"/>
</svg>
