<svg width="24" height="24" viewBox="0 0 24 24" fill="none" xmlns="http://www.w3.org/2000/svg">
<g clip-path="url(#clip0_2432_40480)">
<path d="M11.9637 0.771509C11.7574 0.774332 11.5922 0.943066 11.5946 1.14944V5.73319L4.75942 7.89121C4.60346 7.93963 4.49709 8.0839 4.49678 8.24721V9.74135C4.49696 9.99365 4.74204 10.1732 4.98267 10.0973L12.0024 7.89121L18.9543 10.0973C19.1947 10.1726 19.4391 9.99318 19.4394 9.74135V8.24721C19.4392 8.08409 19.3332 7.93996 19.1775 7.89121L12.3416 5.731V3.39134H14.5835C14.9157 3.39121 15.0825 2.99004 14.8484 2.75443L14.3632 2.2722L14.8484 1.78634C15.0825 1.55072 14.9157 1.14957 14.5835 1.14944H12.3416C12.3439 0.939819 12.1733 0.769151 11.9637 0.771509ZM12.0024 8.67473L5.62759 10.6803L5.66188 20.2381L8.60853 20.2324V14.2253H11.5946V20.2244H12.3416V14.2253H15.3306V20.2186L18.3655 20.2115C18.3066 17.0451 18.4139 13.8207 18.3196 10.6785L12.0024 8.67473ZM11.9696 9.78659C12.7903 9.78659 13.4644 10.4607 13.4644 11.2814C13.4644 12.1022 12.7903 12.7755 11.9696 12.7755C11.1488 12.7755 10.4754 12.1022 10.4754 11.2814C10.4754 10.4607 11.1488 9.78659 11.9696 9.78659ZM11.9696 10.5336C11.5525 10.5336 11.2225 10.8644 11.2225 11.2814C11.2225 11.6984 11.5525 12.0285 11.9696 12.0285C12.3866 12.0285 12.7166 11.6984 12.7166 11.2814C12.7166 10.8644 12.3866 10.5336 11.9696 10.5336ZM19.079 10.8612L19.0871 13.1009H22.4656C22.6556 13.0812 22.8 12.9212 22.8005 12.7303V11.2362C22.8012 11.0299 22.6347 10.862 22.4284 10.8612H19.079ZM1.50563 10.8773C1.2982 10.8765 1.12985 11.0448 1.13064 11.2522V12.7303C1.13101 12.9215 1.276 13.0815 1.46623 13.101H4.88928L4.88125 10.8773H1.50563ZM1.88281 13.848V20.2454L4.91481 20.2398L4.89221 13.8482L1.88281 13.848ZM19.09 13.848L19.1126 20.2104L22.0534 20.2034V13.8475L19.09 13.848ZM0.763674 21.3193V22.8142C0.762927 23.0205 0.929462 23.1884 1.13575 23.1892H22.8005C23.0079 23.19 23.1762 23.0216 23.1754 22.8142V21.3193C23.1747 21.1281 23.0294 20.9686 22.8391 20.9495C15.5422 20.9637 8.25149 20.9797 0.955545 20.9946C0.788129 21.0031 0.764309 21.1844 0.763674 21.3193Z" fill="white"/>
</g>
<defs>
<clipPath id="clip0_2432_40480">
<rect width="24" height="24" fill="white"/>
</clipPath>
</defs>
</svg>
