<svg width="21" height="20" viewBox="0 0 21 20" fill="none" xmlns="http://www.w3.org/2000/svg">
<g clip-path="url(#clip0_2395_55741)">
<path d="M8.24701 1.97638V9.27049C8.24701 9.73852 8.06109 10.1874 7.73014 10.5183C7.3992 10.8493 6.95034 11.0352 6.48231 11.0352H2.77642C2.3084 11.0352 1.85954 10.8493 1.52859 10.5183C1.19764 10.1874 1.01172 9.73852 1.01172 9.27049V1.97638C1.01172 1.50835 1.19764 1.05949 1.52859 0.728541C1.85954 0.397594 2.3084 0.21167 2.77642 0.21167H6.48231C6.95034 0.21167 7.3992 0.397594 7.73014 0.728541C8.06109 1.05949 8.24701 1.50835 8.24701 1.97638ZM6.48231 12.3764H2.77642C2.3084 12.3764 1.85954 12.5623 1.52859 12.8932C1.19764 13.2242 1.01172 13.6731 1.01172 14.1411V18.0234C1.01172 18.4915 1.19764 18.9403 1.52859 19.2713C1.85954 19.6022 2.3084 19.7881 2.77642 19.7881H6.48231C6.95034 19.7881 7.3992 19.6022 7.73014 19.2713C8.06109 18.9403 8.24701 18.4915 8.24701 18.0234V14.1411C8.24701 13.6731 8.06109 13.2242 7.73014 12.8932C7.3992 12.5623 6.95034 12.3764 6.48231 12.3764ZM18.8235 8.0352H11.3529C10.8849 8.0352 10.436 8.22112 10.1051 8.55207C9.77411 8.88302 9.58819 9.33187 9.58819 9.7999V18.0234C9.58819 18.4915 9.77411 18.9403 10.1051 19.2713C10.436 19.6022 10.8849 19.7881 11.3529 19.7881H18.8235C19.2915 19.7881 19.7404 19.6022 20.0713 19.2713C20.4023 18.9403 20.5882 18.4915 20.5882 18.0234V9.7999C20.5882 9.33187 20.4023 8.88302 20.0713 8.55207C19.7404 8.22112 19.2915 8.0352 18.8235 8.0352ZM18.8235 0.21167H11.3529C10.8849 0.21167 10.436 0.397594 10.1051 0.728541C9.77411 1.05949 9.58819 1.50835 9.58819 1.97638V4.92932C9.58819 5.39735 9.77411 5.84621 10.1051 6.17715C10.436 6.5081 10.8849 6.69402 11.3529 6.69402H18.8235C19.2915 6.69402 19.7404 6.5081 20.0713 6.17715C20.4023 5.84621 20.5882 5.39735 20.5882 4.92932V1.97638C20.5882 1.50835 20.4023 1.05949 20.0713 0.728541C19.7404 0.397594 19.2915 0.21167 18.8235 0.21167Z" fill="white"/>
</g>
<defs>
<clipPath id="clip0_2395_55741">
<rect width="20" height="20" fill="white" transform="translate(0.800781)"/>
</clipPath>
</defs>
</svg>
