<svg width="23" height="17" viewBox="0 0 23 17" fill="none" xmlns="http://www.w3.org/2000/svg">
<g clip-path="url(#clip0_2432_39265)">
<path d="M20.8159 11.0084C20.8159 10.6528 21.1042 10.3571 21.4598 10.3571H22.4297C22.3158 7.88232 21.366 5.65281 19.8588 3.90576L19.1989 4.5615C19.0731 4.6872 18.9084 4.74798 18.7436 4.74798C18.5787 4.74798 18.414 4.68407 18.2882 4.55837C18.0368 4.3069 18.0368 3.89868 18.2882 3.64721L18.9796 2.97466C17.2664 1.41383 15.0434 0.403802 12.6119 0.227091V1.19692C12.6119 1.55251 12.3163 1.84085 11.9607 1.84085C11.605 1.84085 11.3094 1.55255 11.3094 1.19692V0.211548C8.87801 0.329124 6.60343 1.28219 4.85842 2.79231L5.5522 3.49194C5.80367 3.74342 5.80072 4.15111 5.54929 4.40259C5.42355 4.52829 5.2573 4.59115 5.09253 4.59115C4.92772 4.59115 4.76221 4.52829 4.63647 4.40259L3.9255 3.69887C2.36745 5.4141 1.36076 7.66523 1.1877 10.0966H2.14246C2.4981 10.0966 2.78639 10.3923 2.78639 10.7479C2.78639 11.1035 2.4981 11.3992 2.14246 11.3992H1.1748C1.2431 12.7451 1.57586 14.0753 2.12236 15.2687C2.12279 15.27 2.1696 15.3602 2.18292 15.3883C2.31752 15.6416 2.5231 15.741 2.78036 15.741H19.2705H20.7837C21.0547 15.741 21.2909 15.5987 21.4194 15.3812C21.4275 15.364 21.4733 15.2682 21.4787 15.2563C21.4791 15.2552 21.4794 15.2708 21.4798 15.2697C21.9922 14.1506 22.3168 12.9188 22.4116 11.6597H21.4598C21.1041 11.6597 20.8159 11.364 20.8159 11.0084ZM16.7069 6.80625L14.1878 11.6349C14.0685 11.9949 13.8665 12.3331 13.5806 12.619C13.1053 13.0944 12.4733 13.3561 11.8011 13.3561C11.1289 13.3561 10.4969 13.0944 10.0216 12.619C9.04039 11.6378 9.04039 10.0412 10.0216 9.05994C10.2859 8.79566 10.5988 8.59758 10.9399 8.47367C10.9449 8.47089 10.9495 8.46759 10.9546 8.46494L15.84 5.93659C16.0895 5.80764 16.3938 5.85509 16.5921 6.05386C16.7903 6.25276 16.8368 6.55725 16.7069 6.80625Z" fill="white"/>
</g>
<defs>
<clipPath id="clip0_2432_39265">
<rect width="22" height="16.1765" fill="white" transform="translate(0.799805)"/>
</clipPath>
</defs>
</svg>
