<svg width="25" height="24" viewBox="0 0 25 24" fill="none" xmlns="http://www.w3.org/2000/svg">
<g clip-path="url(#clip0_2395_29741)">
<mask id="mask0_2395_29741" style="mask-type:luminance" maskUnits="userSpaceOnUse" x="0" y="0" width="25" height="24">
<path d="M24.8008 0H0.800781V24H24.8008V0Z" fill="white"/>
</mask>
<g mask="url(#mask0_2395_29741)">
<path fill-rule="evenodd" clip-rule="evenodd" d="M14.1165 0.984312C14.2727 1.14053 14.3508 1.32909 14.3508 1.55V2.377C14.0878 2.359 13.8212 2.35 13.5508 2.35C13.2804 2.35 13.0137 2.359 12.7508 2.377V1.55C12.7508 1.32909 12.8289 1.14053 12.9851 0.984312C13.1413 0.828104 13.3299 0.75 13.5508 0.75C13.7717 0.75 13.9602 0.828104 14.1165 0.984312ZM6.19687 5.39609C8.0364 3.55656 10.221 2.5502 12.7508 2.377V4.75C12.7508 4.97091 12.8289 5.15947 12.9851 5.31569C13.1413 5.4719 13.3299 5.55 13.5508 5.55C13.7717 5.55 13.9602 5.4719 14.1165 5.31569C14.2727 5.15947 14.3508 4.97091 14.3508 4.75V2.377C16.8805 2.5502 19.0652 3.55656 20.9047 5.39609C22.7442 7.23564 23.7506 9.42032 23.9238 11.9501H21.5507C21.3298 11.9501 21.1413 12.0282 20.985 12.1844C20.8289 12.3406 20.7507 12.5292 20.7507 12.7501C20.7507 12.971 20.8289 13.1596 20.985 13.3158C21.1413 13.472 21.3298 13.5501 21.5507 13.5501H23.9237C23.7505 16.0798 22.7442 18.2644 20.9047 20.1039C19.0652 21.9434 16.8805 22.9498 14.3508 23.123V20.75C14.3508 20.5291 14.2727 20.3406 14.1165 20.1843C13.9602 20.0281 13.7717 19.95 13.5508 19.95C13.3299 19.95 13.1413 20.0281 12.9851 20.1843C12.8289 20.3406 12.7508 20.5291 12.7508 20.75V23.123C10.221 22.9498 8.0364 21.9434 6.19687 20.1039C4.35734 18.2644 3.35098 16.0798 3.17778 13.55H5.55078C5.77169 13.55 5.96025 13.4719 6.11647 13.3157C6.27268 13.1594 6.35078 12.9709 6.35078 12.75C6.35078 12.5291 6.27268 12.3406 6.11647 12.1843C5.96025 12.0281 5.77169 11.95 5.55078 11.95H3.17778C3.35098 9.42024 4.35734 7.23562 6.19687 5.39609ZM2.35078 11.95H3.17778C3.15978 12.213 3.15078 12.4796 3.15078 12.75C3.15078 13.0204 3.15978 13.287 3.17778 13.55H2.35078C2.12987 13.55 1.94131 13.4719 1.78509 13.3157C1.62889 13.1594 1.55078 12.9709 1.55078 12.75C1.55078 12.5291 1.62889 12.3406 1.78509 12.1843C1.94131 12.0281 2.12987 11.95 2.35078 11.95ZM12.7508 23.95V23.123C13.0137 23.141 13.2804 23.15 13.5508 23.15C13.8212 23.15 14.0878 23.141 14.3508 23.123V23.95C14.3508 24.1709 14.2727 24.3594 14.1165 24.5157C13.9602 24.6719 13.7717 24.75 13.5508 24.75C13.3299 24.75 13.1413 24.6719 12.9851 24.5157C12.8289 24.3594 12.7508 24.1709 12.7508 23.95ZM24.7507 13.5501H23.9237C23.9418 13.2871 23.9508 13.0204 23.9508 12.75C23.9508 12.4796 23.9418 12.213 23.9238 11.9501H24.7507C24.9717 11.9501 25.1602 12.0282 25.3165 12.1844C25.4726 12.3406 25.5507 12.5292 25.5507 12.7501C25.5507 12.971 25.4726 13.1596 25.3165 13.3158C25.1602 13.472 24.9717 13.5501 24.7507 13.5501ZM8.39521 11.4855C8.39521 9.95552 8.93582 8.6972 10.0171 7.71065C11.0113 6.80355 12.1891 6.35 13.5508 6.35C14.9124 6.35 16.0903 6.80355 17.0845 7.71065C18.1657 8.6972 18.7063 9.95552 18.7063 11.4855C18.7063 12.9559 18.1157 14.5857 16.9346 16.3746C15.7131 18.2249 14.5851 19.15 13.5508 19.15C12.5077 19.15 11.3769 18.2246 10.1585 16.3738C8.98294 14.5882 8.39521 12.9587 8.39521 11.4855ZM10.8841 11.5055C10.8841 10.6166 11.1063 9.95 11.5508 9.50552C11.9952 9.06112 12.6618 8.83888 13.5508 8.83888C14.4397 8.83888 15.1063 9.06112 15.5508 9.50552C15.9952 9.95 16.2174 10.6166 16.2174 11.5055C16.2174 12.2419 15.9571 12.8705 15.4364 13.3911C14.9157 13.9118 14.2871 14.1722 13.5508 14.1722C12.6618 14.1722 11.9952 13.95 11.5508 13.5055C11.1063 13.0611 10.8841 12.3944 10.8841 11.5055Z" fill="white"/>
</g>
</g>
<defs>
<clipPath id="clip0_2395_29741">
<rect width="24" height="24" fill="white" transform="translate(0.800781)"/>
</clipPath>
</defs>
</svg>
