<svg width="25" height="24" viewBox="0 0 25 24" fill="none" xmlns="http://www.w3.org/2000/svg">
<path d="M23.9571 13.1927C24.0293 12.677 24.0681 12.1571 24.0735 11.6364C24.0681 11.1156 24.0293 10.5958 23.9571 10.08L22.3208 9.23636C22.0791 8.20984 21.6765 7.22801 21.1281 6.32727L21.6881 4.57455C21.0614 3.75313 20.3277 3.01934 19.5062 2.39273L17.7535 2.95273C16.8528 2.40424 15.8709 2.00169 14.8444 1.76L14.0008 0.123636C13.4828 0.0487764 12.9605 0.00747812 12.4371 0C11.9164 0.00538082 11.3965 0.0442488 10.8808 0.116364L10.0371 1.75273C9.01062 1.99442 8.02879 2.39697 7.12805 2.94545L5.37533 2.38546C4.55391 3.01206 3.82012 3.74586 3.19351 4.56727L3.75351 6.32C3.20502 7.22074 2.80247 8.20257 2.56078 9.22909L0.924418 10.0727C0.849558 10.5907 0.808259 11.113 0.800781 11.6364C0.806162 12.1571 0.84503 12.677 0.917145 13.1927L2.55351 14.0364C2.7952 15.0629 3.19775 16.0447 3.74624 16.9455L3.18624 18.6982C3.81284 19.5196 4.54664 20.2534 5.36805 20.88L7.14987 20.3636C8.05061 20.9121 9.03244 21.3147 10.059 21.5564L10.9026 23.1927C11.4119 23.2518 11.9245 23.2785 12.4371 23.2727C12.9579 23.2673 13.4778 23.2285 13.9935 23.1564L14.8371 21.52C15.8637 21.2783 16.8455 20.8758 17.7462 20.3273L19.499 20.8873C20.322 20.2625 21.0561 19.5285 21.6808 18.7055L21.1644 16.9236C21.7129 16.0229 22.1155 15.0411 22.3571 14.0145L23.9571 13.1927ZM12.4371 18.6182C11.0563 18.6182 9.70641 18.2087 8.55825 17.4415C7.4101 16.6744 6.51522 15.584 5.98679 14.3082C5.45835 13.0324 5.32009 11.6286 5.58948 10.2743C5.85888 8.91994 6.52383 7.6759 7.50025 6.69947C8.47668 5.72305 9.72072 5.05809 11.0751 4.7887C12.4294 4.5193 13.8332 4.65757 15.109 5.186C16.3847 5.71444 17.4751 6.60932 18.2423 7.75747C19.0095 8.90563 19.419 10.2555 19.419 11.6364C19.419 12.5532 19.2384 13.4611 18.8875 14.3082C18.5366 15.1553 18.0224 15.9249 17.374 16.5733C16.7257 17.2216 15.956 17.7359 15.109 18.0867C14.2619 18.4376 13.354 18.6182 12.4371 18.6182Z" fill="white"/>
</svg>
