<svg width="25" height="24" viewBox="0 0 25 24" fill="none" xmlns="http://www.w3.org/2000/svg">
<g clip-path="url(#clip0_2395_39073)">
<path d="M24.0008 10.3999H23.0652C22.9498 9.6545 22.7581 8.93578 22.4932 8.25154L23.3002 7.78555C23.6829 7.56459 23.814 7.07531 23.593 6.69276L22.793 5.30709C22.5722 4.92445 22.0829 4.79333 21.7002 5.01429L20.8962 5.47852C20.429 4.89925 19.9015 4.37181 19.3222 3.90453L19.7864 3.10046C20.0073 2.71782 19.8762 2.22863 19.4936 2.00767L18.1079 1.20767C17.7253 0.986793 17.236 1.11791 17.0152 1.50047L16.5492 2.30758C15.8649 2.04271 15.1462 1.85103 14.4008 1.73559V0.799995C14.4008 0.358158 14.0426 0 13.6008 0H12.0008C11.5589 0 11.2008 0.358158 11.2008 0.799995V1.73559C10.4554 1.85103 9.73664 2.04271 9.05241 2.30758L8.58641 1.50047C8.36553 1.11783 7.87617 0.986713 7.49362 1.20767L6.10795 2.00767C5.72531 2.22863 5.59419 2.7179 5.81515 3.10046L6.27938 3.90453C5.70011 4.37173 5.17259 4.89917 4.70539 5.47852L3.90132 5.01429C3.51868 4.79341 3.02941 4.92445 2.80853 5.30709L2.00853 6.69276C1.78757 7.07539 1.91869 7.56459 2.30133 7.78555L3.10837 8.25154C2.84349 8.93578 2.65181 9.6545 2.53637 10.3999H1.60078C1.15894 10.3999 0.800781 10.7581 0.800781 11.1999V12.7999C0.800781 13.2417 1.15894 13.5999 1.60078 13.5999H2.53637C2.65181 14.3453 2.84349 15.0641 3.10837 15.7483L2.30133 16.2143C1.91869 16.4352 1.78757 16.9244 2.00853 17.3071L2.80853 18.6928C3.02941 19.0754 3.51868 19.2065 3.90132 18.9856L4.70539 18.5213C5.17259 19.1006 5.70003 19.628 6.27938 20.0953L5.81515 20.8994C5.59427 21.282 5.72539 21.7713 6.10795 21.9922L7.49362 22.7922C7.87625 23.013 8.36553 22.882 8.58641 22.4994L9.05241 21.6923C9.73664 21.9572 10.4554 22.1489 11.2008 22.2643V23.1999C11.2008 23.6417 11.5589 23.9999 12.0008 23.9999H13.6008C14.0426 23.9999 14.4008 23.6417 14.4008 23.1999V22.2643C15.1462 22.1489 15.8648 21.9572 16.5492 21.6923L17.0152 22.4994C17.236 22.882 17.7254 23.0131 18.1079 22.7922L19.4936 21.9922C19.8763 21.7713 20.0074 21.282 19.7864 20.8994L19.3222 20.0953C19.9015 19.6281 20.4289 19.1007 20.8962 18.5213L21.7002 18.9856C22.0829 19.2064 22.5722 19.0753 22.793 18.6928L23.593 17.3071C23.814 16.9244 23.6829 16.4352 23.3002 16.2143L22.4932 15.7483C22.7581 15.0641 22.9498 14.3453 23.0652 13.5999H24.0008C24.4426 13.5999 24.8008 13.2417 24.8008 12.7999V11.1999C24.8008 10.7581 24.4426 10.3999 24.0008 10.3999ZM19.0164 16.1717L16.9735 18.2147C16.8563 18.3319 16.7032 18.3904 16.5492 18.3904C16.3953 18.3904 16.2422 18.3319 16.125 18.2147L13.3977 15.4873H11.6852C10.1547 15.4873 8.71649 14.8921 7.63522 13.8108C7.09146 13.267 6.70706 12.5788 6.52354 11.8194C6.34226 11.0686 6.37746 10.2803 6.62434 9.5381L6.94778 8.56858C7.01418 8.37171 7.17746 8.22251 7.37978 8.17483C7.58058 8.12643 7.79385 8.18731 7.94145 8.33418L10.7462 11.1389L11.6438 10.8373L11.9407 9.94433L9.13601 7.13963C8.98913 6.99275 8.92817 6.78027 8.97665 6.57796C9.02433 6.37564 9.17352 6.21236 9.3704 6.14596L10.3399 5.82252C11.8469 5.3202 13.486 5.70692 14.6125 6.83347C15.7 7.92099 16.2953 9.36002 16.2891 10.8858V12.5959L19.0164 15.3233C19.2508 15.5577 19.2508 15.9374 19.0164 16.1717Z" fill="white"/>
<path d="M15.0891 12.8446V10.8836C15.0938 9.67741 14.6235 8.5415 13.7641 7.68207C12.961 6.87895 11.7938 6.60239 10.7196 6.96175L10.6712 6.97735L13.0516 9.35862C13.2126 9.51958 13.2688 9.75701 13.1969 9.97269L12.6876 11.5008C12.6274 11.6797 12.4876 11.8196 12.3087 11.8797L10.7751 12.3946C10.5587 12.4672 10.3212 12.4102 10.1602 12.25L7.77895 9.86957L7.76335 9.91797C7.58679 10.4461 7.56175 11.0063 7.68991 11.5375C7.82119 12.082 8.09614 12.575 8.48366 12.9624C9.33838 13.8171 10.4751 14.2874 11.6852 14.2874H13.6462C13.8055 14.2874 13.9579 14.3507 14.0704 14.4631L16.5493 16.942L17.7438 15.7475L15.265 13.2686C15.1525 13.1561 15.0891 13.004 15.0891 12.8446Z" fill="white"/>
</g>
<defs>
<clipPath id="clip0_2395_39073">
<rect width="24" height="23.9999" fill="white" transform="translate(0.800781)"/>
</clipPath>
</defs>
</svg>
