<svg width="21" height="21" viewBox="0 0 21 21" fill="none" xmlns="http://www.w3.org/2000/svg">
<path fill-rule="evenodd" clip-rule="evenodd" d="M5.61328 0.375H4.23828C2.33981 0.375 0.800781 1.91402 0.800781 3.8125V17.5625C0.800781 19.461 2.33981 21 4.23828 21H16.6133C18.5117 21 20.0508 19.461 20.0508 17.5625V3.8125C20.0508 1.91402 18.5117 0.375 16.6133 0.375H15.2383V3.58334C15.2383 4.0896 14.8074 4.5 14.2758 4.5H6.57578C6.04421 4.5 5.61328 4.0896 5.61328 3.58334V0.375ZM9.73828 9.3125C9.73828 8.93279 10.0461 8.625 10.4258 8.625H15.9258C16.3055 8.625 16.6133 8.93279 16.6133 9.3125C16.6133 9.69221 16.3055 10 15.9258 10H10.4258C10.0461 10 9.73828 9.69221 9.73828 9.3125ZM10.4258 14.125C10.0461 14.125 9.73828 14.4328 9.73828 14.8125C9.73828 15.1922 10.0461 15.5 10.4258 15.5H13.1758C13.5555 15.5 13.8633 15.1922 13.8633 14.8125C13.8633 14.4328 13.5555 14.125 13.1758 14.125H10.4258ZM4.92578 7.25C4.54609 7.25 4.23828 7.55779 4.23828 7.9375V10.6875C4.23828 11.0672 4.54609 11.375 4.92578 11.375H7.67578C8.05549 11.375 8.36328 11.0672 8.36328 10.6875V7.9375C8.36328 7.55779 8.05549 7.25 7.67578 7.25H4.92578ZM4.23828 13.4375C4.23828 13.0578 4.54609 12.75 4.92578 12.75H7.67578C8.05549 12.75 8.36328 13.0578 8.36328 13.4375V16.1875C8.36328 16.5672 8.05549 16.875 7.67578 16.875H4.92578C4.54609 16.875 4.23828 16.5672 4.23828 16.1875V13.4375Z" fill="white"/>
</svg>
